# xmcd
#
# Track frame offsets:
#	150
#	8474
#	17398
#	25647
#	34064
#	43250
#
# Disc length: 774 seconds
#
# Revision: 0
# Processed by: cddbd v1.5.2PL0 Copyright (c) Steve Scherf et al.
# Submitted via: EasyCDDAExtractor 15.2.5.1
#
DISCID=33030406
DTITLE=하헌진 - 오 (2012) by oreum.com
DYEAR=2012
DGENRE=Blues
TTITLE0=내 마음 너무 기뻐라
TTITLE1=이렇게 살바엔
TTITLE2=나와 함께 해
TTITLE3=여기선 아무도 믿을 수 없네
TTITLE4=난 뭐든 좋아
TTITLE5=오 이젠
EXTD=
EXTT0=
EXTT1=
EXTT2=
EXTT3=
EXTT4=
EXTT5=
PLAYORDER=
